HIERARCHY
ROOT mixamorigHips
{
	OFFSET 0.000000 0.000000 -95.415794
	CHANNELS 6 Xposition Yposition Zposition Xrotation Yrotation Zrotation
	JOINT mixamorigSpine
	{
		OFFSET 0.000000 -0.358200 -10.058800
		CHANNELS 3 Xrotation Yrotation Zrotation
		JOINT mixamorigSpine1
		{
			OFFSET 0.000000 -0.417847 -11.735359
			CHANNELS 3 Xrotation Yrotation Zrotation
			JOINT mixamorigSpine2
			{
				OFFSET 0.000000 -0.477538 -13.411812
				CHANNELS 3 Xrotation Yrotation Zrotation
				JOINT mixamorigNeck
				{
					OFFSET 0.000000 -0.537228 -15.088242
					CHANNELS 3 Xrotation Yrotation Zrotation
					JOINT mixamorigHead
					{
						OFFSET 0.000000 2.687800 -8.085602
						CHANNELS 3 Xrotation Yrotation Zrotation
						JOINT mixamorigHeadTop_End
						{
							OFFSET 0.000000 7.146700 -21.499207
							CHANNELS 3 Xrotation Yrotation Zrotation
							End Site
							{
								OFFSET 0.000000 0.000000 -22.655930
							}
						}
					}
				}
				JOINT mixamorigLeftShoulder
				{
					OFFSET 5.949100 -0.535855 -13.237015
					CHANNELS 3 Xrotation Yrotation Zrotation
					JOINT mixamorigLeftArm
					{
						OFFSET 11.918104 0.002851 3.676208
						CHANNELS 3 Xrotation Yrotation Zrotation
						JOINT mixamorigLeftForeArm
						{
							OFFSET 23.814898 -0.000001 0.000000
							CHANNELS 3 Xrotation Yrotation Zrotation
							JOINT mixamorigLeftHand
							{
								OFFSET 24.556309 -0.000001 0.000000
								CHANNELS 3 Xrotation Yrotation Zrotation
								JOINT mixamorigLeftHandThumb1
								{
									OFFSET 2.802582 2.556223 1.204224
									CHANNELS 3 Xrotation Yrotation Zrotation
									JOINT mixamorigLeftHandThumb2
									{
										OFFSET 2.466209 1.423865 1.423859
										CHANNELS 3 Xrotation Yrotation Zrotation
										JOINT mixamorigLeftHandThumb3
										{
											OFFSET 2.369835 1.368225 1.368225
											CHANNELS 3 Xrotation Yrotation Zrotation
											JOINT mixamorigLeftHandThumb4
											{
												OFFSET 1.846512 1.066086 1.066086
												CHANNELS 3 Xrotation Yrotation Zrotation
												End Site
												{
													OFFSET 1.556206 1.486212 1.025696
												}
											}
										}
									}
								}
								JOINT mixamorigLeftHandIndex1
								{
									OFFSET 8.620476 2.435161 0.225967
									CHANNELS 3 Xrotation Yrotation Zrotation
									JOINT mixamorigLeftHandIndex2
									{
										OFFSET 3.045731 -0.000000 0.000000
										CHANNELS 3 Xrotation Yrotation Zrotation
										JOINT mixamorigLeftHandIndex3
										{
											OFFSET 2.806702 -0.000000 0.000000
											CHANNELS 3 Xrotation Yrotation Zrotation
											JOINT mixamorigLeftHandIndex4
											{
												OFFSET 2.440117 -0.000000 0.000000
												CHANNELS 3 Xrotation Yrotation Zrotation
												End Site
												{
													OFFSET 2.440094 -0.008200 0.000061
												}
											}
										}
									}
								}
								JOINT mixamorigLeftHandMiddle1
								{
									OFFSET 8.484863 -0.000000 0.000000
									CHANNELS 3 Xrotation Yrotation Zrotation
									JOINT mixamorigLeftHandMiddle2
									{
										OFFSET 3.193611 -0.000000 0.000000
										CHANNELS 3 Xrotation Yrotation Zrotation
										JOINT mixamorigLeftHandMiddle3
										{
											OFFSET 3.085205 -0.000000 0.000000
											CHANNELS 3 Xrotation Yrotation Zrotation
											JOINT mixamorigLeftHandMiddle4
											{
												OFFSET 2.692902 -0.000000 0.000000
												CHANNELS 3 Xrotation Yrotation Zrotation
												End Site
												{
													OFFSET 2.692902 -0.003300 0.000031
												}
											}
										}
									}
								}
								JOINT mixamorigLeftHandRing1
								{
									OFFSET 8.270775 -2.023483 -0.052689
									CHANNELS 3 Xrotation Yrotation Zrotation
									JOINT mixamorigLeftHandRing2
									{
										OFFSET 2.740799 -0.000000 0.000000
										CHANNELS 3 Xrotation Yrotation Zrotation
										JOINT mixamorigLeftHandRing3
										{
											OFFSET 2.757607 -0.000000 0.000000
											CHANNELS 3 Xrotation Yrotation Zrotation
											JOINT mixamorigLeftHandRing4
											{
												OFFSET 2.285004 -0.000000 0.000000
												CHANNELS 3 Xrotation Yrotation Zrotation
												End Site
												{
													OFFSET 2.285004 0.003000 -0.000031
												}
											}
										}
									}
								}
								JOINT mixamorigLeftHandPinky1
								{
									OFFSET 7.700752 -3.945376 0.253616
									CHANNELS 3 Xrotation Yrotation Zrotation
									JOINT mixamorigLeftHandPinky2
									{
										OFFSET 2.527405 0.000000 0.000000
										CHANNELS 3 Xrotation Yrotation Zrotation
										JOINT mixamorigLeftHandPinky3
										{
											OFFSET 2.003403 0.000000 0.000000
											CHANNELS 3 Xrotation Yrotation Zrotation
											JOINT mixamorigLeftHandPinky4
											{
												OFFSET 1.854500 0.000000 0.000000
												CHANNELS 3 Xrotation Yrotation Zrotation
												End Site
												{
													OFFSET 1.854507 -0.001300 0.000015
												}
											}
										}
									}
								}
							}
						}
					}
				}
				JOINT mixamorigRightShoulder
				{
					OFFSET -5.949100 -0.538657 -13.237015
					CHANNELS 3 Xrotation Yrotation Zrotation
					JOINT mixamorigRightArm
					{
						OFFSET -11.918104 -0.002847 3.676208
						CHANNELS 3 Xrotation Yrotation Zrotation
						JOINT mixamorigRightForeArm
						{
							OFFSET -23.819902 0.000001 0.000000
							CHANNELS 3 Xrotation Yrotation Zrotation
							JOINT mixamorigRightHand
							{
								OFFSET -24.559902 0.000001 0.000000
								CHANNELS 3 Xrotation Yrotation Zrotation
								JOINT mixamorigRightHandThumb1
								{
									OFFSET -2.702209 2.527615 1.308395
									CHANNELS 3 Xrotation Yrotation Zrotation
									JOINT mixamorigRightHandThumb2
									{
										OFFSET -2.432022 1.404127 1.404129
										CHANNELS 3 Xrotation Yrotation Zrotation
										JOINT mixamorigRightHandThumb3
										{
											OFFSET -2.375206 1.371325 1.371323
											CHANNELS 3 Xrotation Yrotation Zrotation
											JOINT mixamorigRightHandThumb4
											{
												OFFSET -1.987808 1.147661 1.147659
												CHANNELS 3 Xrotation Yrotation Zrotation
												End Site
												{
													OFFSET -1.835846 1.380323 1.144562
												}
											}
										}
									}
								}
								JOINT mixamorigRightHandIndex1
								{
									OFFSET -8.671478 2.442636 0.301926
									CHANNELS 3 Xrotation Yrotation Zrotation
									JOINT mixamorigRightHandIndex2
									{
										OFFSET -3.068298 0.000000 0.000000
										CHANNELS 3 Xrotation Yrotation Zrotation
										JOINT mixamorigRightHandIndex3
										{
											OFFSET -2.779701 0.000000 0.000000
											CHANNELS 3 Xrotation Yrotation Zrotation
											JOINT mixamorigRightHandIndex4
											{
												OFFSET -2.490097 0.000000 0.000000
												CHANNELS 3 Xrotation Yrotation Zrotation
												End Site
												{
													OFFSET -2.490097 -0.000700 0.000000
												}
											}
										}
									}
								}
								JOINT mixamorigRightHandMiddle1
								{
									OFFSET -8.656311 0.000000 0.000000
									CHANNELS 3 Xrotation Yrotation Zrotation
									JOINT mixamorigRightHandMiddle2
									{
										OFFSET -3.230400 0.000000 0.000000
										CHANNELS 3 Xrotation Yrotation Zrotation
										JOINT mixamorigRightHandMiddle3
										{
											OFFSET -3.025497 0.000000 0.000000
											CHANNELS 3 Xrotation Yrotation Zrotation
											JOINT mixamorigRightHandMiddle4
											{
												OFFSET -2.688805 0.000000 0.000000
												CHANNELS 3 Xrotation Yrotation Zrotation
												End Site
												{
													OFFSET -2.688797 -0.000700 0.000000
												}
											}
										}
									}
								}
								JOINT mixamorigRightHandRing1
								{
									OFFSET -8.628174 -2.089274 -0.073822
									CHANNELS 3 Xrotation Yrotation Zrotation
									JOINT mixamorigRightHandRing2
									{
										OFFSET -2.674103 0.000000 0.000000
										CHANNELS 3 Xrotation Yrotation Zrotation
										JOINT mixamorigRightHandRing3
										{
											OFFSET -2.630905 0.000000 0.000000
											CHANNELS 3 Xrotation Yrotation Zrotation
											JOINT mixamorigRightHandRing4
											{
												OFFSET -2.160599 0.000000 0.000000
												CHANNELS 3 Xrotation Yrotation Zrotation
												End Site
												{
													OFFSET -2.160599 -0.000900 0.000000
												}
											}
										}
									}
								}
								JOINT mixamorigRightHandPinky1
								{
									OFFSET -7.514580 -3.927982 0.339432
									CHANNELS 3 Xrotation Yrotation Zrotation
									JOINT mixamorigRightHandPinky2
									{
										OFFSET -2.510002 0.000000 0.000000
										CHANNELS 3 Xrotation Yrotation Zrotation
										JOINT mixamorigRightHandPinky3
										{
											OFFSET -2.099197 0.000000 0.000000
											CHANNELS 3 Xrotation Yrotation Zrotation
											JOINT mixamorigRightHandPinky4
											{
												OFFSET -1.845604 0.000000 0.000000
												CHANNELS 3 Xrotation Yrotation Zrotation
												End Site
												{
													OFFSET -1.845596 0.001600 0.000015
												}
											}
										}
									}
								}
							}
						}
					}
				}
			}
		}
	}
	JOINT mixamorigLeftUpLeg
	{
		OFFSET 9.392100 -0.093200 5.572197
		CHANNELS 3 Xrotation Yrotation Zrotation
		JOINT mixamorigLeftLeg
		{
			OFFSET 0.292645 -2.734330 42.228855
			CHANNELS 3 Xrotation Yrotation Zrotation
			JOINT mixamorigLeftFoot
			{
				OFFSET -0.292647 -1.515097 39.069244
				CHANNELS 3 Xrotation Yrotation Zrotation
				JOINT mixamorigLeftToeBase
				{
					OFFSET 1.771321 12.504712 7.534380
					CHANNELS 3 Xrotation Yrotation Zrotation
					JOINT mixamorigLeftToe_End
					{
						OFFSET 0.606595 5.917521 -0.250482
						CHANNELS 3 Xrotation Yrotation Zrotation
						End Site
						{
							OFFSET 0.606595 5.917521 -0.250482
						}
					}
				}
			}
		}
	}
	JOINT mixamorigRightUpLeg
	{
		OFFSET -9.392100 -0.015200 5.572197
		CHANNELS 3 Xrotation Yrotation Zrotation
		JOINT mixamorigRightLeg
		{
			OFFSET -0.292665 -2.850109 42.228924
			CHANNELS 3 Xrotation Yrotation Zrotation
			JOINT mixamorigRightFoot
			{
				OFFSET 0.292671 -1.341140 39.069195
				CHANNELS 3 Xrotation Yrotation Zrotation
				JOINT mixamorigRightToeBase
				{
					OFFSET -1.771318 12.379671 7.534140
					CHANNELS 3 Xrotation Yrotation Zrotation
					JOINT mixamorigRightToe_End
					{
						OFFSET -0.606596 6.000615 -0.250612
						CHANNELS 3 Xrotation Yrotation Zrotation
						End Site
						{
							OFFSET -0.606596 6.000614 -0.250612
						}
					}
				}
			}
		}
	}
}
MOTION
Frames: 4
Frame Time: 0.033333
0.304871 -0.049427 -94.887489 -3.448318 -3.333048 5.237610 3.369901 2.318778 -1.530624 1.161091 1.552771 -0.339581 1.135835 1.555855 -0.361677 5.625684 0.454682 0.078966 -7.565281 -0.080542 -1.375725 -0.000000 -0.000000 0.000000 4.794726 -11.744703 17.827419 46.758123 -61.855184 46.444170 -0.000002 -0.000007 1.459361 -33.082496 -6.184858 1.372807 -0.480393 4.829068 -2.168013 19.357388 15.363418 -26.435206 -13.251792 9.018652 -3.581587 -0.000000 0.000003 -0.000001 0.149121 -7.592435 0.978154 -0.280543 -17.367330 -1.836651 -0.058255 -8.037182 -0.829098 0.000001 -0.000002 0.000001 -0.825162 -15.679399 -2.768884 -0.281529 -17.397096 -1.840004 -0.316561 -18.403349 -1.953950 -0.000000 0.000001 0.000001 -1.269552 -21.088800 -3.903584 -0.413585 -20.897280 -2.242347 -0.297212 -17.855875 -1.891796 -0.000000 -0.000004 0.000001 -1.912028 -26.990220 -6.237562 -0.281553 -17.397458 -1.840044 -0.252187 -16.498694 -1.739334 -0.000000 -0.000001 0.000001 5.175891 14.170602 -15.837648 50.516984 49.307385 -45.195123 0.000015 -0.000004 -6.693745 -20.240234 6.782554 0.517709 -1.652388 -4.219006 0.174937 20.896597 -13.947611 30.828260 -14.747388 -12.682181 3.648525 0.000003 0.000001 -0.000002 0.189591 6.822045 -1.271299 -0.223914 17.401688 1.463001 -0.046478 8.052697 0.660363 -0.000002 0.000003 -0.000001 -0.726877 14.987513 2.282790 -0.224693 17.431527 1.465676 -0.252660 18.439916 1.556463 0.000000 -0.000001 -0.000001 -1.115662 20.420222 3.282224 -0.330117 20.939232 1.786275 -0.237226 17.891288 1.506923 0.000000 -0.000001 -0.000001 -1.679639 26.370146 5.454254 -0.224704 17.431893 1.465699 -0.201285 16.531249 1.385465 0.000001 -0.000000 -0.000001 -9.846805 10.200420 -14.647610 14.390606 4.207274 -2.082726 0.944083 -7.337163 -0.546213 -4.928544 0.000005 -0.000005 -0.000000 0.000000 -0.000001 0.490279 3.120957 10.344420 5.753930 -3.229955 9.779776 -2.114786 2.929360 1.574634 -7.282916 -0.000004 -0.000011 0.000000 0.000000 0.000001 
0.243719 -0.093594 -94.891441 -3.469741 -3.333827 5.206694 3.375208 2.316022 -1.530746 1.167397 1.549105 -0.340035 1.142155 1.552250 -0.362200 5.638657 0.443289 0.074771 -7.585997 -0.100847 -1.396264 -0.000000 -0.000000 0.000000 4.802271 -11.756611 17.849849 46.629910 -61.903685 46.284323 0.000006 -0.000012 1.437181 -33.050852 -6.169306 1.365039 -0.490967 4.824194 -2.153324 19.342191 15.373089 -26.411259 -13.251317 9.018679 -3.582560 -0.000001 0.000003 -0.000005 0.149806 -7.583249 0.980105 -0.280753 -17.373397 -1.837335 -0.058326 -8.043226 -0.829737 -0.000000 -0.000007 0.000001 -0.825352 -15.682246 -2.760716 -0.281491 -17.395732 -1.839853 -0.316520 -18.401991 -1.953787 0.000001 -0.000002 -0.000000 -1.266894 -21.059234 -3.885536 -0.413225 -20.889324 -2.241420 -0.296956 -17.848445 -1.890951 0.000000 0.000000 -0.000001 -1.912427 -26.992829 -6.238892 -0.281363 -17.391803 -1.839418 -0.252000 -16.493001 -1.738701 -0.000001 -0.000000 -0.000000 5.181359 14.170902 -15.859797 50.541976 49.341406 -45.200799 0.000009 0.000015 -6.676431 -20.218137 6.799432 0.542377 -1.660390 -4.251814 0.156683 20.878684 -13.953613 30.803487 -14.740040 -12.685433 3.659384 0.000003 -0.000002 -0.000002 0.192621 6.766064 -1.279787 -0.221460 17.309504 1.454755 -0.045406 7.960454 0.652705 -0.000000 -0.000003 0.000001 -0.728679 15.015324 2.282764 -0.224694 17.431227 1.465642 -0.252652 18.439665 1.556430 -0.000000 -0.000002 -0.000001 -1.112740 20.382589 3.277698 -0.330157 20.940498 1.786396 -0.237242 17.892531 1.507042 -0.000002 -0.000000 -0.000002 -1.675229 26.320563 5.450489 -0.228340 17.566371 1.477758 -0.204685 16.665744 1.397399 -0.000002 -0.000001 -0.000000 -9.778350 10.238831 -14.708186 14.218599 4.191309 -1.995071 1.072888 -7.350948 -0.531787 -4.914848 0.000005 -0.000004 0.000000 -0.000000 0.000000 0.542457 3.183671 10.336469 5.637536 -3.239621 9.803873 -2.048490 2.873484 1.585705 -7.275708 -0.000004 -0.000015 0.000001 0.000000 -0.000000 
0.169614 -0.141723 -94.894318 -3.490124 -3.341126 5.169492 3.379673 2.313815 -1.528998 1.172564 1.545913 -0.337215 1.147326 1.549087 -0.359434 5.661670 0.433969 0.070923 -7.582041 -0.128129 -1.418911 -0.000000 -0.000000 0.000000 4.808601 -11.762175 17.871890 46.556680 -61.935390 46.165436 -0.000018 0.000004 1.427154 -33.042444 -6.175560 1.373987 -0.499781 4.822156 -2.140701 19.335975 15.377083 -26.401459 -13.251205 9.018692 -3.582777 0.000003 0.000001 0.000000 0.149670 -7.589175 0.980583 -0.280251 -17.358190 -1.835625 -0.058098 -8.028029 -0.828138 0.000000 -0.000003 0.000001 -0.825527 -15.684863 -2.761709 -0.281301 -17.389921 -1.839194 -0.316297 -18.396170 -1.953130 0.000000 -0.000001 0.000002 -1.265737 -21.046876 -3.871651 -0.413250 -20.889703 -2.241458 -0.296993 -17.849280 -1.891041 -0.000000 -0.000001 -0.000000 -1.911303 -26.982891 -6.238621 -0.281140 -17.385470 -1.838702 -0.251805 -16.486656 -1.737990 0.000000 -0.000001 -0.000001 5.184455 14.183923 -15.867621 50.576062 49.353861 -45.220951 0.000002 -0.000000 -6.666658 -20.210945 6.819690 0.547791 -1.659002 -4.270211 0.155933 20.878121 -13.953779 30.802709 -14.740646 -12.685161 3.658500 -0.000000 -0.000002 -0.000003 0.192508 6.750754 -1.290725 -0.219857 17.249648 1.449403 -0.044719 7.900585 0.647730 0.000001 0.000001 -0.000001 -0.728395 15.010889 2.286868 -0.224842 17.436768 1.466149 -0.252811 18.445161 1.556925 0.000002 -0.000003 0.000001 -1.112002 20.373105 3.271821 -0.330149 20.940597 1.786412 -0.237251 17.892606 1.507052 0.000000 -0.000002 -0.000001 -1.674362 26.306612 5.451925 -0.229612 17.613238 1.481946 -0.205886 16.712585 1.401561 -0.000000 0.000001 -0.000003 -9.714368 10.297099 -14.799147 14.045122 4.178409 -1.886345 1.209290 -7.371237 -0.497396 -4.899728 0.000008 -0.000000 0.000000 0.000000 -0.000001 0.595152 3.269275 10.306253 5.515191 -3.256695 9.867735 -1.979260 2.811871 1.586372 -7.273121 -0.000002 -0.000004 0.000001 0.000001 0.000001 
0.077392 -0.194317 -94.895508 -3.511676 -3.356035 5.124348 3.384837 2.310783 -1.525835 1.178720 1.540515 -0.331981 1.153472 1.543705 -0.354252 5.695019 0.425794 0.069893 -7.558065 -0.163569 -1.430623 -0.000000 0.000000 -0.000000 4.815159 -11.758572 17.901608 46.505850 -61.959720 46.060818 -0.000022 -0.000010 1.425011 -33.048564 -6.194853 1.395477 -0.498028 4.817876 -2.143961 19.339757 15.374653 -26.407431 -13.250766 9.018761 -3.583664 0.000000 -0.000003 0.000003 0.151948 -7.602454 0.971529 -0.279927 -17.349329 -1.834623 -0.057990 -8.019149 -0.827209 -0.000001 -0.000002 0.000000 -0.826189 -15.693608 -2.764346 -0.281144 -17.385569 -1.838705 -0.316150 -18.391845 -1.952626 0.000000 0.000004 -0.000001 -1.266445 -21.054825 -3.869827 -0.413284 -20.890248 -2.241528 -0.297012 -17.849948 -1.891131 -0.000000 -0.000005 0.000001 -1.910311 -26.973484 -6.238362 -0.281054 -17.383176 -1.838449 -0.251738 -16.484330 -1.737725 0.000000 -0.000001 -0.000001 5.185913 14.210701 -15.863743 50.624778 49.346959 -45.262793 -0.000013 0.000007 -6.668064 -20.223488 6.835856 0.537833 -1.657967 -4.280091 0.155968 20.877231 -13.954109 30.801476 -14.742499 -12.684348 3.655738 0.000003 -0.000004 -0.000001 0.191705 6.762600 -1.290717 -0.219467 17.235006 1.448096 -0.044554 7.885951 0.646522 -0.000000 0.000001 -0.000000 -0.726135 14.976225 2.285774 -0.224983 17.442218 1.466627 -0.252979 18.450578 1.557413 0.000000 -0.000001 -0.000001 -1.112391 20.378295 3.262392 -0.329953 20.934771 1.785858 -0.237084 17.886631 1.506511 -0.000000 -0.000002 0.000000 -1.674393 26.304466 5.452839 -0.228928 17.588388 1.479725 -0.205247 16.687732 1.399363 0.000000 -0.000000 0.000001 -9.653948 10.373912 -14.911213 13.869555 4.177792 -1.762121 1.355094 -7.407157 -0.444825 -4.891349 0.000006 -0.000009 0.000001 -0.000000 0.000002 0.645251 3.375446 10.270747 5.399870 -3.271718 9.945888 -1.917108 2.736824 1.586992 -7.270977 -0.000007 -0.000000 0.000001 0.000000 -0.000004 
